<?xml version="1.0" encoding="iso-8859-1"?>
<!-- Generator: Adobe Illustrator 19.0.0, SVG Export Plug-In . SVG Version: 6.00 Build 0)  -->
<svg version="1.1" id="Layer_1" xmlns="http://www.w3.org/2000/svg" xmlns:xlink="http://www.w3.org/1999/xlink" x="0px" y="0px"
	 viewBox="0 0 512 512" style="enable-background:new 0 0 512 512;" xml:space="preserve">
<path style="fill:#57C3D9;" d="M456.344,511.991c-5.152,0-10.141-2.391-13.359-6.679l-36.728-48.972l-36.728,48.972
	c-6.304,8.413-20.413,8.413-26.717,0l-36.728-48.972l-36.728,48.972c-6.304,8.413-20.413,8.413-26.717,0l-36.728-48.972
	l-36.728,48.972c-6.304,8.413-20.413,8.413-26.717,0l-36.728-48.972l-36.728,48.972c-4.315,5.755-11.815,8.114-18.641,5.82
	c-6.815-2.272-11.413-8.652-11.413-15.837V217.04C38.96,97.363,136.328,0,256,0s217.04,97.363,217.04,217.04v278.256
	c0,7.185-4.598,13.566-11.413,15.837C459.888,511.714,458.105,511.991,456.344,511.991z"/>
<path style="fill:#3DB1CC;" d="M269.358,505.312l36.728-48.972l36.728,48.972c6.304,8.413,20.413,8.413,26.717,0l36.728-48.972
	l36.728,48.972c3.218,4.288,8.206,6.679,13.359,6.679c1.761,0,3.544-0.277,5.282-0.858c6.815-2.272,11.413-8.652,11.413-15.837
	V217.04C473.04,97.363,375.672,0,256,0v511.622C261.103,511.622,266.206,509.518,269.358,505.312z"/>
<path style="fill:#EDF0F2;" d="M172.523,300.517c-36.826,0-66.781-29.956-66.781-66.781s29.956-66.781,66.781-66.781
	s66.781,29.956,66.781,66.781S209.349,300.517,172.523,300.517z"/>
<path style="fill:#DAE1E6;" d="M339.477,300.517c-36.826,0-66.781-29.956-66.781-66.781s29.956-66.781,66.781-66.781
	s66.781,29.956,66.781,66.781S376.302,300.517,339.477,300.517z"/>
<circle style="fill:#736056;" cx="189.214" cy="250.43" r="16.695"/>
<circle style="fill:#665247;" cx="356.168" cy="250.43" r="16.695"/>
<g>
</g>
<g>
</g>
<g>
</g>
<g>
</g>
<g>
</g>
<g>
</g>
<g>
</g>
<g>
</g>
<g>
</g>
<g>
</g>
<g>
</g>
<g>
</g>
<g>
</g>
<g>
</g>
<g>
</g>
</svg>
