<?xml version="1.0" encoding="iso-8859-1"?>
<!-- Generator: Adobe Illustrator 19.0.0, SVG Export Plug-In . SVG Version: 6.00 Build 0)  -->
<svg version="1.1" id="Layer_1" xmlns="http://www.w3.org/2000/svg" xmlns:xlink="http://www.w3.org/1999/xlink" x="0px" y="0px"
	 viewBox="0 0 512 512" style="enable-background:new 0 0 512 512;" xml:space="preserve">
<path style="fill:#FFD3AE;" d="M406.067,225.86v120.796c0,42.208-24.325,79.688-60.918,97.535c-0.071,0.035-0.154,0.071-0.236,0.106
	c-15.117,7.34-24.904,22.469-24.904,39.288V512H147.171v-12.186c0-26.7-6.985-52.833-19.573-76.366
	c-14.136-26.429-21.665-56.096-21.665-86.425V135.488c0-16.323,13.238-29.561,29.561-29.561c0.449,0,0.91,0.012,1.359,0.035
	c0.106,0,0.213,0,0.319,0.012c0.343,0.024,0.686,0.047,1.04,0.083c0.213,0.012,0.437,0.035,0.65,0.059
	c0.343,0.035,0.697,0.095,1.028,0.142c0.662,0.095,1.312,0.213,1.95,0.366c0.366,0.071,0.733,0.154,1.087,0.248
	c0.355,0.095,0.697,0.189,1.04,0.295c0.201,0.059,0.414,0.118,0.615,0.189c0.355,0.118,0.709,0.236,1.064,0.366
	c0.437,0.165,0.851,0.331,1.277,0.508c0.946,0.39,1.868,0.839,2.754,1.324c2.47,1.347,4.74,3.049,6.714,5.035
	c5.342,5.342,8.652,12.73,8.652,20.897V75.633c0-12.115,7.293-22.528,17.729-27.079c3.617-1.596,7.624-2.47,11.82-2.47
	c8.155,0,15.555,3.309,20.897,8.664c5.342,5.342,8.652,12.73,8.652,20.885V29.561c0-12.115,7.293-22.54,17.729-27.09
	c3.617-1.596,7.624-2.47,11.82-2.47c8.156,0,15.555,3.309,20.897,8.664c5.354,5.344,8.664,12.731,8.664,20.897v37.208
	c0-12.115,7.293-22.528,17.729-27.079c3.617-1.596,7.612-2.47,11.82-2.47c8.167,0,15.543,3.309,20.897,8.652
	c5.342,5.354,8.652,12.73,8.652,20.897v194.314c0-15.247,6.891-28.875,17.729-37.953c8.581-7.186,19.656-11.524,31.736-11.524
	c3.936,0,7.494,1.596,10.082,4.172C404.472,218.355,406.067,221.924,406.067,225.86z"/>
<g>
	<path style="fill:#E5B48F;" d="M155.965,423.448c-14.136-26.429-21.665-56.096-21.665-86.425v-40.588V135.488
		c0-11.181,6.214-20.912,15.373-25.936c-4.211-2.311-9.042-3.625-14.179-3.625c-16.323,0-29.561,13.238-29.561,29.561v160.947
		v40.588c0,30.329,7.529,59.996,21.665,86.425c12.588,23.533,19.573,49.666,19.573,76.366V512h28.367v-12.186
		C175.538,473.114,168.553,446.981,155.965,423.448z"/>
	<path style="fill:#E5B48F;" d="M182.772,48.555v194.857c0,4.893-3.971,8.865-8.865,8.865c-4.893,0-8.865-3.971-8.865-8.865V75.633
		C165.043,63.518,172.335,53.105,182.772,48.555z"/>
	<path style="fill:#E5B48F;" d="M241.87,2.47v231.486c0,4.893-3.971,8.865-8.865,8.865c-4.893,0-8.865-3.971-8.865-8.865V29.561
		C224.14,17.446,231.433,7.021,241.87,2.47z"/>
	<path style="fill:#E5B48F;" d="M300.979,39.69v203.888c0,4.893-3.971,8.865-8.865,8.865c-4.893,0-8.865-3.971-8.865-8.865V66.769
		C283.25,54.654,290.543,44.241,300.979,39.69z"/>
	<path style="fill:#E5B48F;" d="M360.077,223.13v99.119c0,4.893-3.971,8.865-8.865,8.865s-8.865-3.971-8.865-8.865v-61.166
		C342.348,245.835,349.239,232.207,360.077,223.13z"/>
</g>
<circle style="fill:#F7B239;" cx="243.519" cy="351.183" r="75.054"/>
<path style="fill:#F95428;" d="M243.513,267.264c-46.274,0-83.919,37.645-83.919,83.919s37.645,83.919,83.919,83.919
	s83.919-37.645,83.919-83.919S289.786,267.264,243.513,267.264z M252.366,416.758v-54.535l36.806,36.806
	C279.302,408.449,266.549,414.855,252.366,416.758z M252.366,337.153v-51.557c32.327,4.35,57.337,32.09,57.337,65.587
	c0,12.387-3.428,23.994-9.385,33.922L252.366,337.153z M197.854,399.029l36.782-36.771v54.5
	C220.464,414.855,207.711,408.449,197.854,399.029z M234.636,337.189l-47.928,47.917c-5.957-9.928-9.385-21.535-9.385-33.922
	c0-33.485,24.998-61.225,57.313-65.587V337.189z"/>
<g>
</g>
<g>
</g>
<g>
</g>
<g>
</g>
<g>
</g>
<g>
</g>
<g>
</g>
<g>
</g>
<g>
</g>
<g>
</g>
<g>
</g>
<g>
</g>
<g>
</g>
<g>
</g>
<g>
</g>
</svg>
